<?xml version="1.0" standalone="no"?>
<!DOCTYPE svg PUBLIC "-//W3C//DTD SVG 20010904//EN" "http://www.w3.org/TR/2001/REC-SVG-20010904/DTD/svg10.dtd">
<svg version="1.0" xmlns="http://www.w3.org/2000/svg" width="372.000000pt" height="372.000000pt" viewBox="0 0 372.000000 372.000000" preserveAspectRatio="xMidYMid meet">
 <g fill="#4d4136" transform="translate(0.000000,372.000000) scale(0.100000,-0.100000)" stroke="none">
  <path fill="#e49249" d="M1740 3330 c-222 -29 -415 -125 -589 -294 -152 -147 -220 -264 -266 -456 -22 -90 -33 -404 -15 -425 33 -40 171 -132 265 -176 127 -60 247 -101 380 -129 142 -31 523 -40 677 -16 273 43 511 143 647 270 l53 51 -5 180 c-5 176 -11 212 -56 362 -21 71 -83 182 -144 259 -188 237 -452 366 -772 378 -60 3 -139 1 -175 -4z m-178 -662 c48 -24 85 -79 100 -151 11 -53 11 -58 -18 -114 -51 -99 -141 -142 -228 -109 -78 30 -155 127 -156 196 0 42 45 126 84 155 74 56 139 63 218 23z m771 18 c59 -22 107 -64 133 -120 29 -61 30 -88 5 -142 -39 -86 -142 -153 -216 -141 -59 10 -116 56 -149 120 -29 56 -29 61 -18 114 20 97 71 153 157 174 42 10 46 10 88 -5z" />
  <path fill="#ac7342" d="M870 1795 c-10 -12 -11 -44 -7 -128 l6 -112 53 -48 c182 -165 433 -305 633 -354 182 -44 403 -55 557 -28 248 43 510 175 697 351 l81 76 0 112 c0 74 -4 116 -12 124 -22 22 -61 12 -167 -42 -142 -72 -224 -103 -361 -138 -247 -62 -510 -71 -774 -27 -194 33 -500 141 -596 209 -33 24 -92 26 -110 5z" />
  <path fill="#7a583c" d="M880 1185 c-39 -47 51 -254 170 -392 166 -195 357 -314 578 -363 135 -30 378 -28 520 4 237 54 383 136 548 307 90 95 155 187 199 283 74 162 22 230 -100 131 -178 -144 -435 -250 -706 -290 -135 -19 -202 -19 -359 1 -254 33 -518 135 -693 268 -89 69 -131 82 -157 51z" />
  <path d="M1750 3614 c-237 -30 -434 -102 -620 -227 -96 -64 -273 -241 -337 -337 -103 -153 -173 -323 -210 -505 -16 -81 -18 -150 -18 -685 0 -535 2 -604 18 -685 55 -274 171 -491 366 -686 192 -191 398 -304 664 -361 144 -30 370 -30 514 0 266 57 472 170 664 361 195 195 311 412 366 686 16 81 18 150 18 685 0 535 -2 604 -18 685 -55 274 -171 491 -366 686 -192 192 -403 306 -664 360 -98 20 -302 32 -377 23z m220 -335 c240 -29 439 -121 593 -272 182 -178 277 -424 277 -715 l0 -106 -49 -45 c-51 -48 -198 -134 -291 -169 -72 -27 -175 -56 -280 -78 -107 -23 -492 -27 -610 -6 -247 44 -489 143 -649 265 l-54 42 7 146 c9 202 46 338 127 476 52 86 190 226 290 293 179 119 289 156 539 179 9 0 54 -4 100 -10z m-1019 -1540 c38 -27 178 -92 254 -118 229 -79 393 -110 625 -118 353 -12 674 57 936 203 33 19 64 34 67 34 4 0 7 -33 7 -74 l0 -73 -83 -80 c-156 -150 -358 -258 -592 -319 -259 -67 -557 -29 -830 106 -150 74 -253 141 -343 225 l-71 66 -3 84 c-2 47 -1 85 0 85 2 0 17 -9 33 -21z m150 -722 c201 -128 536 -217 814 -217 253 0 530 71 734 187 68 39 204 133 219 151 23 30 12 -7 -27 -90 -103 -217 -303 -408 -521 -500 -250 -105 -571 -116 -800 -28 -92 36 -229 120 -312 191 -87 76 -184 202 -233 304 -69 143 -69 147 6 88 35 -28 89 -66 120 -86z"/>
  <path d="M1365 2727 c-212 -101 -203 -384 14 -480 158 -70 341 55 341 233 0 74 -15 121 -53 172 -69 91 -201 124 -302 75z m180 -142 c74 -73 -26 -179 -109 -114 -55 43 -18 139 54 139 19 0 40 -9 55 -25z"/>
  <path d="M2198 2736 c-108 -39 -167 -127 -167 -251 -1 -182 180 -309 340 -238 172 76 223 276 105 410 -72 82 -182 113 -278 79z m117 -151 c35 -34 34 -86 -1 -114 -57 -45 -134 -12 -134 58 0 74 83 109 135 56z"/>
 </g>
</svg>
